<svg width="475" height="139" viewBox="0 0 475 139" fill="none" xmlns="http://www.w3.org/2000/svg">
<path d="M43.0457 50.6746L43.0355 50.6797L43.0202 50.6898L43.0457 50.6746ZM93.6452 49.724C93.2915 49.3828 92.8991 49.0843 92.476 48.8344C91.8769 48.4817 91.2119 48.2557 90.5221 48.1702C89.8322 48.0847 89.1321 48.1416 88.4651 48.3375C87.7981 48.5333 87.1783 48.8638 86.6441 49.3086C86.1099 49.7535 85.6727 50.3032 85.3593 50.9237C83.6086 54.3749 81.1936 57.4463 78.2528 59.9618C78.7037 57.4281 78.9316 54.8596 78.934 52.286C78.9437 44.4584 76.879 36.768 72.9501 29.9978C69.0212 23.2276 63.3684 17.6194 56.5673 13.7442C55.8179 13.3183 54.9724 13.0901 54.1105 13.0809C53.2485 13.0716 52.3984 13.2817 51.64 13.6914C50.8816 14.1011 50.2398 14.697 49.775 15.4229C49.3102 16.1489 49.0377 16.9811 48.983 17.8413C48.6984 22.6609 47.4384 27.3724 45.2793 31.6906C43.1202 36.0088 40.1069 39.8438 36.4221 42.9632L35.2529 43.9138C31.3978 46.5075 27.9855 49.7052 25.1472 53.384C20.7363 58.9407 17.6808 65.4487 16.223 72.3919C14.7653 79.335 14.9454 86.5224 16.749 93.3838C18.5527 100.245 21.9303 106.592 26.614 111.921C31.2977 117.25 37.1586 121.414 43.7319 124.083C44.5036 124.397 45.3408 124.517 46.1696 124.431C46.9984 124.346 47.7936 124.058 48.485 123.593C49.1764 123.128 49.7429 122.5 50.1347 121.765C50.5265 121.029 50.7315 120.209 50.7317 119.376C50.7274 118.837 50.6417 118.303 50.4775 117.79C49.3402 113.515 49.0126 109.065 49.5117 104.67C54.3229 113.741 62.0449 120.932 71.4361 125.084C72.5819 125.597 73.877 125.665 75.0707 125.278C82.4897 122.883 89.1731 118.63 94.486 112.925C99.7989 107.22 103.565 100.251 105.426 92.6803C107.287 85.1097 107.182 77.189 105.12 69.6706C103.058 62.1523 99.108 55.286 93.6452 49.724ZM73.7947 114.948C69.3635 112.703 65.4545 109.55 62.3218 105.695C59.1891 101.84 56.9028 97.3683 55.6117 92.5714C55.2169 90.956 54.9114 89.3201 54.6967 87.6711C54.552 86.621 54.0827 85.6425 53.3545 84.8723C52.6262 84.1021 51.6754 83.5788 50.6351 83.3757C50.3152 83.3136 49.99 83.2829 49.6642 83.2842C48.771 83.2833 47.8934 83.5178 47.1197 83.964C46.346 84.4102 45.7035 85.0524 45.2569 85.8258C41.04 93.1014 38.9199 101.402 39.1315 109.809C35.4215 106.925 32.3207 103.334 30.009 99.2427C27.6973 95.1517 26.2206 90.6425 25.6646 85.9765C25.1085 81.3106 25.4842 76.5806 26.7697 72.0609C28.0552 67.5412 30.2251 63.3216 33.1535 59.6467C35.377 56.7585 38.0594 54.2548 41.0937 52.2352C41.2264 52.15 41.3538 52.0566 41.4749 51.9556C41.4749 51.9556 42.9796 50.7102 43.0304 50.6848C50.2752 44.5596 55.4285 36.3267 57.7721 27.1337C63.31 32.2545 67.0022 39.0605 68.2753 46.4949C69.5483 53.9293 68.3311 61.576 64.8125 68.2477C64.3468 69.1382 64.1556 70.1467 64.2628 71.1458C64.3701 72.145 64.7711 73.0899 65.4152 73.8613C66.0592 74.6326 66.9175 75.1958 67.8814 75.4796C68.8454 75.7634 69.8719 75.7551 70.8312 75.4558C78.6175 73.0139 85.4688 68.2453 90.463 61.7918C93.4657 66.2257 95.429 71.2801 96.2065 76.5783C96.984 81.8765 96.5557 87.2818 94.9534 92.3915C93.3512 97.5011 90.6164 102.183 86.9529 106.089C83.2893 109.994 78.7915 113.023 73.7947 114.948Z" fill="#FFBF00"/>
<path d="M180.5 74.2C184.433 74.9333 187.667 76.9 190.2 80.1C192.733 83.3 194 86.9667 194 91.1C194 94.8333 193.067 98.1333 191.2 101C189.4 103.8 186.767 106 183.3 107.6C179.833 109.2 175.733 110 171 110H140.9V40.2H169.7C174.433 40.2 178.5 40.9667 181.9 42.5C185.367 44.0333 187.967 46.1667 189.7 48.9C191.5 51.6333 192.4 54.7333 192.4 58.2C192.4 62.2667 191.3 65.6667 189.1 68.4C186.967 71.1333 184.1 73.0667 180.5 74.2ZM154.9 69H167.7C171.033 69 173.6 68.2667 175.4 66.8C177.2 65.2667 178.1 63.1 178.1 60.3C178.1 57.5 177.2 55.3333 175.4 53.8C173.6 52.2667 171.033 51.5 167.7 51.5H154.9V69ZM169 98.6C172.4 98.6 175.033 97.8 176.9 96.2C178.833 94.6 179.8 92.3333 179.8 89.4C179.8 86.4 178.8 84.0667 176.8 82.4C174.8 80.6667 172.1 79.8 168.7 79.8H154.9V98.6H169ZM257.458 54.6V110H243.358V103C241.558 105.4 239.191 107.3 236.258 108.7C233.391 110.033 230.258 110.7 226.858 110.7C222.524 110.7 218.691 109.8 215.358 108C212.024 106.133 209.391 103.433 207.458 99.9C205.591 96.3 204.658 92.0333 204.658 87.1V54.6H218.658V85.1C218.658 89.5 219.758 92.9 221.958 95.3C224.158 97.6333 227.158 98.8 230.958 98.8C234.824 98.8 237.858 97.6333 240.058 95.3C242.258 92.9 243.358 89.5 243.358 85.1V54.6H257.458ZM285.271 63.2C287.071 60.2667 289.404 57.9667 292.271 56.3C295.204 54.6333 298.538 53.8 302.271 53.8V68.5H298.571C294.171 68.5 290.838 69.5333 288.571 71.6C286.371 73.6667 285.271 77.2667 285.271 82.4V110H271.271V54.6H285.271V63.2ZM332.901 110.9C328.367 110.9 324.301 110.1 320.701 108.5C317.101 106.833 314.234 104.6 312.101 101.8C310.034 99 308.901 95.9 308.701 92.5H322.801C323.067 94.6333 324.101 96.4 325.901 97.8C327.767 99.2 330.067 99.9 332.801 99.9C335.467 99.9 337.534 99.3667 339.001 98.3C340.534 97.2333 341.301 95.8667 341.301 94.2C341.301 92.4 340.367 91.0667 338.501 90.2C336.701 89.2667 333.801 88.2667 329.801 87.2C325.667 86.2 322.267 85.1667 319.601 84.1C317.001 83.0333 314.734 81.4 312.801 79.2C310.934 77 310.001 74.0333 310.001 70.3C310.001 67.2333 310.867 64.4333 312.601 61.9C314.401 59.3667 316.934 57.3667 320.201 55.9C323.534 54.4333 327.434 53.7 331.901 53.7C338.501 53.7 343.767 55.3667 347.701 58.7C351.634 61.9667 353.801 66.4 354.201 72H340.801C340.601 69.8 339.667 68.0667 338.001 66.8C336.401 65.4667 334.234 64.8 331.501 64.8C328.967 64.8 327.001 65.2667 325.601 66.2C324.267 67.1333 323.601 68.4333 323.601 70.1C323.601 71.9667 324.534 73.4 326.401 74.4C328.267 75.3333 331.167 76.3 335.101 77.3C339.101 78.3 342.401 79.3333 345.001 80.4C347.601 81.4667 349.834 83.1333 351.701 85.4C353.634 87.6 354.634 90.5333 354.701 94.2C354.701 97.4 353.801 100.267 352.001 102.8C350.267 105.333 347.734 107.333 344.401 108.8C341.134 110.2 337.301 110.9 332.901 110.9ZM382.493 66.1V92.9C382.493 94.7667 382.926 96.1333 383.793 97C384.726 97.8 386.26 98.2 388.393 98.2H394.893V110H386.093C374.293 110 368.393 104.267 368.393 92.8V66.1H361.793V54.6H368.393V40.9H382.493V54.6H394.893V66.1H382.493Z" fill="#FFBF00"/>
</svg>
